<mxfile host="app.diagrams.net" agent="Mozilla/5.0 (Windows NT 10.0; Win64; x64) AppleWebKit/537.36 (KHTML, like Gecko) Chrome/131.0.0.0 Safari/537.36 Edg/131.0.0.0" version="24.9.3">
  <diagram id="C5RBs43oDa-KdzZeNtuy" name="Page-1">
    <mxGraphModel dx="3143" dy="1202" grid="1" gridSize="10" guides="1" tooltips="1" connect="1" arrows="1" fold="1" page="1" pageScale="1" pageWidth="827" pageHeight="1169" math="0" shadow="0">
      <root>
        <mxCell id="WIyWlLk6GJQsqaUBKTNV-0" />
        <mxCell id="WIyWlLk6GJQsqaUBKTNV-1" parent="WIyWlLk6GJQsqaUBKTNV-0" />
        <mxCell id="kFVm6DLGCeXIeXEloJKa-37" value="" style="group" parent="WIyWlLk6GJQsqaUBKTNV-1" vertex="1" connectable="0">
          <mxGeometry x="490" y="1280" width="320" height="250" as="geometry" />
        </mxCell>
        <mxCell id="kFVm6DLGCeXIeXEloJKa-22" value="" style="rounded=0;whiteSpace=wrap;html=1;" parent="kFVm6DLGCeXIeXEloJKa-37" vertex="1">
          <mxGeometry width="320" height="250" as="geometry" />
        </mxCell>
        <mxCell id="kFVm6DLGCeXIeXEloJKa-23" value="&lt;font style=&quot;font-size: 14px;&quot;&gt;&lt;b&gt;Enums&lt;/b&gt;&lt;/font&gt;" style="text;html=1;align=center;verticalAlign=middle;whiteSpace=wrap;rounded=0;" parent="kFVm6DLGCeXIeXEloJKa-37" vertex="1">
          <mxGeometry x="120" y="10" width="90" height="30" as="geometry" />
        </mxCell>
        <mxCell id="kFVm6DLGCeXIeXEloJKa-29" value="&lt;span style=&quot;font-weight: 700;&quot;&gt;(E)&amp;nbsp;&lt;/span&gt;Role" style="swimlane;fontStyle=0;childLayout=stackLayout;horizontal=1;startSize=26;fillColor=none;horizontalStack=0;resizeParent=1;resizeParentMax=0;resizeLast=0;collapsible=1;marginBottom=0;whiteSpace=wrap;html=1;" parent="kFVm6DLGCeXIeXEloJKa-37" vertex="1">
          <mxGeometry x="10" y="54" width="140" height="130" as="geometry" />
        </mxCell>
        <mxCell id="kFVm6DLGCeXIeXEloJKa-30" value="MANAGER" style="text;strokeColor=none;fillColor=none;align=left;verticalAlign=top;spacingLeft=4;spacingRight=4;overflow=hidden;rotatable=0;points=[[0,0.5],[1,0.5]];portConstraint=eastwest;whiteSpace=wrap;html=1;" parent="kFVm6DLGCeXIeXEloJKa-29" vertex="1">
          <mxGeometry y="26" width="140" height="26" as="geometry" />
        </mxCell>
        <mxCell id="kFVm6DLGCeXIeXEloJKa-31" value="SALES_ASSOCIATE" style="text;strokeColor=none;fillColor=none;align=left;verticalAlign=top;spacingLeft=4;spacingRight=4;overflow=hidden;rotatable=0;points=[[0,0.5],[1,0.5]];portConstraint=eastwest;whiteSpace=wrap;html=1;" parent="kFVm6DLGCeXIeXEloJKa-29" vertex="1">
          <mxGeometry y="52" width="140" height="26" as="geometry" />
        </mxCell>
        <mxCell id="kFVm6DLGCeXIeXEloJKa-32" value="INVENTORY_CLERK" style="text;strokeColor=none;fillColor=none;align=left;verticalAlign=top;spacingLeft=4;spacingRight=4;overflow=hidden;rotatable=0;points=[[0,0.5],[1,0.5]];portConstraint=eastwest;whiteSpace=wrap;html=1;" parent="kFVm6DLGCeXIeXEloJKa-29" vertex="1">
          <mxGeometry y="78" width="140" height="26" as="geometry" />
        </mxCell>
        <mxCell id="kFVm6DLGCeXIeXEloJKa-41" value="CASHIER" style="text;strokeColor=none;fillColor=none;align=left;verticalAlign=top;spacingLeft=4;spacingRight=4;overflow=hidden;rotatable=0;points=[[0,0.5],[1,0.5]];portConstraint=eastwest;whiteSpace=wrap;html=1;" parent="kFVm6DLGCeXIeXEloJKa-29" vertex="1">
          <mxGeometry y="104" width="140" height="26" as="geometry" />
        </mxCell>
        <mxCell id="kFVm6DLGCeXIeXEloJKa-33" value="&lt;span style=&quot;font-weight: 700;&quot;&gt;(E)&amp;nbsp;&lt;/span&gt;Genre" style="swimlane;fontStyle=0;childLayout=stackLayout;horizontal=1;startSize=26;fillColor=none;horizontalStack=0;resizeParent=1;resizeParentMax=0;resizeLast=0;collapsible=1;marginBottom=0;whiteSpace=wrap;html=1;" parent="kFVm6DLGCeXIeXEloJKa-37" vertex="1">
          <mxGeometry x="166" y="54" width="140" height="182" as="geometry" />
        </mxCell>
        <mxCell id="kFVm6DLGCeXIeXEloJKa-34" value="ROCK" style="text;strokeColor=none;fillColor=none;align=left;verticalAlign=top;spacingLeft=4;spacingRight=4;overflow=hidden;rotatable=0;points=[[0,0.5],[1,0.5]];portConstraint=eastwest;whiteSpace=wrap;html=1;" parent="kFVm6DLGCeXIeXEloJKa-33" vertex="1">
          <mxGeometry y="26" width="140" height="26" as="geometry" />
        </mxCell>
        <mxCell id="kFVm6DLGCeXIeXEloJKa-35" value="POP" style="text;strokeColor=none;fillColor=none;align=left;verticalAlign=top;spacingLeft=4;spacingRight=4;overflow=hidden;rotatable=0;points=[[0,0.5],[1,0.5]];portConstraint=eastwest;whiteSpace=wrap;html=1;" parent="kFVm6DLGCeXIeXEloJKa-33" vertex="1">
          <mxGeometry y="52" width="140" height="26" as="geometry" />
        </mxCell>
        <mxCell id="kFVm6DLGCeXIeXEloJKa-36" value="JAZZ" style="text;strokeColor=none;fillColor=none;align=left;verticalAlign=top;spacingLeft=4;spacingRight=4;overflow=hidden;rotatable=0;points=[[0,0.5],[1,0.5]];portConstraint=eastwest;whiteSpace=wrap;html=1;" parent="kFVm6DLGCeXIeXEloJKa-33" vertex="1">
          <mxGeometry y="78" width="140" height="26" as="geometry" />
        </mxCell>
        <mxCell id="kFVm6DLGCeXIeXEloJKa-38" value="CLASSICAL" style="text;strokeColor=none;fillColor=none;align=left;verticalAlign=top;spacingLeft=4;spacingRight=4;overflow=hidden;rotatable=0;points=[[0,0.5],[1,0.5]];portConstraint=eastwest;whiteSpace=wrap;html=1;" parent="kFVm6DLGCeXIeXEloJKa-33" vertex="1">
          <mxGeometry y="104" width="140" height="26" as="geometry" />
        </mxCell>
        <mxCell id="kFVm6DLGCeXIeXEloJKa-39" value="HIPHOP" style="text;strokeColor=none;fillColor=none;align=left;verticalAlign=top;spacingLeft=4;spacingRight=4;overflow=hidden;rotatable=0;points=[[0,0.5],[1,0.5]];portConstraint=eastwest;whiteSpace=wrap;html=1;" parent="kFVm6DLGCeXIeXEloJKa-33" vertex="1">
          <mxGeometry y="130" width="140" height="26" as="geometry" />
        </mxCell>
        <mxCell id="kFVm6DLGCeXIeXEloJKa-40" value="ELECTRONIC" style="text;strokeColor=none;fillColor=none;align=left;verticalAlign=top;spacingLeft=4;spacingRight=4;overflow=hidden;rotatable=0;points=[[0,0.5],[1,0.5]];portConstraint=eastwest;whiteSpace=wrap;html=1;" parent="kFVm6DLGCeXIeXEloJKa-33" vertex="1">
          <mxGeometry y="156" width="140" height="26" as="geometry" />
        </mxCell>
        <mxCell id="kFVm6DLGCeXIeXEloJKa-62" value="" style="group" parent="WIyWlLk6GJQsqaUBKTNV-1" vertex="1" connectable="0">
          <mxGeometry x="92" y="20" width="1000" height="270" as="geometry" />
        </mxCell>
        <mxCell id="kFVm6DLGCeXIeXEloJKa-42" value="" style="rounded=0;whiteSpace=wrap;html=1;" parent="kFVm6DLGCeXIeXEloJKa-62" vertex="1">
          <mxGeometry width="999.9999999999999" height="270" as="geometry" />
        </mxCell>
        <mxCell id="kFVm6DLGCeXIeXEloJKa-43" value="(C) AlbumListCellRenderer" style="swimlane;fontStyle=1;align=center;verticalAlign=top;childLayout=stackLayout;horizontal=1;startSize=26;horizontalStack=0;resizeParent=1;resizeParentMax=0;resizeLast=0;collapsible=1;marginBottom=0;whiteSpace=wrap;html=1;" parent="kFVm6DLGCeXIeXEloJKa-62" vertex="1">
          <mxGeometry x="28.571428571428566" y="122" width="365.71428571428567" height="60" as="geometry" />
        </mxCell>
        <mxCell id="kFVm6DLGCeXIeXEloJKa-44" value="+getListCellRendererComponent():void" style="text;strokeColor=none;fillColor=none;align=left;verticalAlign=top;spacingLeft=4;spacingRight=4;overflow=hidden;rotatable=0;points=[[0,0.5],[1,0.5]];portConstraint=eastwest;whiteSpace=wrap;html=1;" parent="kFVm6DLGCeXIeXEloJKa-43" vertex="1">
          <mxGeometry y="26" width="365.71428571428567" height="26" as="geometry" />
        </mxCell>
        <mxCell id="kFVm6DLGCeXIeXEloJKa-45" value="" style="line;strokeWidth=1;fillColor=none;align=left;verticalAlign=middle;spacingTop=-1;spacingLeft=3;spacingRight=3;rotatable=0;labelPosition=right;points=[];portConstraint=eastwest;strokeColor=inherit;" parent="kFVm6DLGCeXIeXEloJKa-43" vertex="1">
          <mxGeometry y="52" width="365.71428571428567" height="8" as="geometry" />
        </mxCell>
        <mxCell id="kFVm6DLGCeXIeXEloJKa-46" value="&lt;span style=&quot;font-weight: 700;&quot;&gt;(C)&amp;nbsp;&lt;/span&gt;MusicShopGui" style="swimlane;fontStyle=0;childLayout=stackLayout;horizontal=1;startSize=26;fillColor=none;horizontalStack=0;resizeParent=1;resizeParentMax=0;resizeLast=0;collapsible=1;marginBottom=0;whiteSpace=wrap;html=1;" parent="kFVm6DLGCeXIeXEloJKa-62" vertex="1">
          <mxGeometry x="728.5714285714286" y="40" width="251.42857142857142" height="212" as="geometry" />
        </mxCell>
        <mxCell id="kFVm6DLGCeXIeXEloJKa-47" value="-frame: JFrame&lt;div&gt;&lt;br&gt;&lt;/div&gt;" style="text;strokeColor=none;fillColor=none;align=left;verticalAlign=top;spacingLeft=4;spacingRight=4;overflow=hidden;rotatable=0;points=[[0,0.5],[1,0.5]];portConstraint=eastwest;whiteSpace=wrap;html=1;" parent="kFVm6DLGCeXIeXEloJKa-46" vertex="1">
          <mxGeometry y="26" width="251.42857142857142" height="26" as="geometry" />
        </mxCell>
        <mxCell id="kFVm6DLGCeXIeXEloJKa-48" value="&lt;div&gt;-productPanel: JPanel&lt;/div&gt;" style="text;strokeColor=none;fillColor=none;align=left;verticalAlign=top;spacingLeft=4;spacingRight=4;overflow=hidden;rotatable=0;points=[[0,0.5],[1,0.5]];portConstraint=eastwest;whiteSpace=wrap;html=1;" parent="kFVm6DLGCeXIeXEloJKa-46" vertex="1">
          <mxGeometry y="52" width="251.42857142857142" height="26" as="geometry" />
        </mxCell>
        <mxCell id="kFVm6DLGCeXIeXEloJKa-49" value="-cartPanel: JPanel" style="text;strokeColor=none;fillColor=none;align=left;verticalAlign=top;spacingLeft=4;spacingRight=4;overflow=hidden;rotatable=0;points=[[0,0.5],[1,0.5]];portConstraint=eastwest;whiteSpace=wrap;html=1;" parent="kFVm6DLGCeXIeXEloJKa-46" vertex="1">
          <mxGeometry y="78" width="251.42857142857142" height="26" as="geometry" />
        </mxCell>
        <mxCell id="kFVm6DLGCeXIeXEloJKa-50" value="&lt;div&gt;+intialise():void&lt;/div&gt;" style="text;strokeColor=none;fillColor=none;align=left;verticalAlign=top;spacingLeft=4;spacingRight=4;overflow=hidden;rotatable=0;points=[[0,0.5],[1,0.5]];portConstraint=eastwest;whiteSpace=wrap;html=1;" parent="kFVm6DLGCeXIeXEloJKa-46" vertex="1">
          <mxGeometry y="104" width="251.42857142857142" height="28" as="geometry" />
        </mxCell>
        <mxCell id="kFVm6DLGCeXIeXEloJKa-51" value="-createProsuctPanel():void" style="text;strokeColor=none;fillColor=none;align=left;verticalAlign=top;spacingLeft=4;spacingRight=4;overflow=hidden;rotatable=0;points=[[0,0.5],[1,0.5]];portConstraint=eastwest;whiteSpace=wrap;html=1;" parent="kFVm6DLGCeXIeXEloJKa-46" vertex="1">
          <mxGeometry y="132" width="251.42857142857142" height="28" as="geometry" />
        </mxCell>
        <mxCell id="kFVm6DLGCeXIeXEloJKa-52" value="-createCartPanel():void" style="text;strokeColor=none;fillColor=none;align=left;verticalAlign=top;spacingLeft=4;spacingRight=4;overflow=hidden;rotatable=0;points=[[0,0.5],[1,0.5]];portConstraint=eastwest;whiteSpace=wrap;html=1;" parent="kFVm6DLGCeXIeXEloJKa-46" vertex="1">
          <mxGeometry y="160" width="251.42857142857142" height="26" as="geometry" />
        </mxCell>
        <mxCell id="kFVm6DLGCeXIeXEloJKa-53" value="-updateUI():void" style="text;strokeColor=none;fillColor=none;align=left;verticalAlign=top;spacingLeft=4;spacingRight=4;overflow=hidden;rotatable=0;points=[[0,0.5],[1,0.5]];portConstraint=eastwest;whiteSpace=wrap;html=1;" parent="kFVm6DLGCeXIeXEloJKa-46" vertex="1">
          <mxGeometry y="186" width="251.42857142857142" height="26" as="geometry" />
        </mxCell>
        <mxCell id="kFVm6DLGCeXIeXEloJKa-54" value="(C) EmployeeRosterGUI" style="swimlane;fontStyle=1;align=center;verticalAlign=top;childLayout=stackLayout;horizontal=1;startSize=26;horizontalStack=0;resizeParent=1;resizeParentMax=0;resizeLast=0;collapsible=1;marginBottom=0;whiteSpace=wrap;html=1;" parent="kFVm6DLGCeXIeXEloJKa-62" vertex="1">
          <mxGeometry x="414.2857142857143" y="70" width="285.7142857142857" height="164" as="geometry" />
        </mxCell>
        <mxCell id="kFVm6DLGCeXIeXEloJKa-55" value="-frame: JFrame&lt;div&gt;&lt;br&gt;&lt;/div&gt;" style="text;strokeColor=none;fillColor=none;align=left;verticalAlign=top;spacingLeft=4;spacingRight=4;overflow=hidden;rotatable=0;points=[[0,0.5],[1,0.5]];portConstraint=eastwest;whiteSpace=wrap;html=1;" parent="kFVm6DLGCeXIeXEloJKa-54" vertex="1">
          <mxGeometry y="26" width="285.7142857142857" height="26" as="geometry" />
        </mxCell>
        <mxCell id="kFVm6DLGCeXIeXEloJKa-56" value="-employeeTable:JTable" style="text;strokeColor=none;fillColor=none;align=left;verticalAlign=top;spacingLeft=4;spacingRight=4;overflow=hidden;rotatable=0;points=[[0,0.5],[1,0.5]];portConstraint=eastwest;whiteSpace=wrap;html=1;" parent="kFVm6DLGCeXIeXEloJKa-54" vertex="1">
          <mxGeometry y="52" width="285.7142857142857" height="26" as="geometry" />
        </mxCell>
        <mxCell id="kFVm6DLGCeXIeXEloJKa-57" value="" style="line;strokeWidth=1;fillColor=none;align=left;verticalAlign=middle;spacingTop=-1;spacingLeft=3;spacingRight=3;rotatable=0;labelPosition=right;points=[];portConstraint=eastwest;strokeColor=inherit;" parent="kFVm6DLGCeXIeXEloJKa-54" vertex="1">
          <mxGeometry y="78" width="285.7142857142857" height="8" as="geometry" />
        </mxCell>
        <mxCell id="kFVm6DLGCeXIeXEloJKa-58" value="&lt;div&gt;+intialize(): void&lt;/div&gt;" style="text;strokeColor=none;fillColor=none;align=left;verticalAlign=top;spacingLeft=4;spacingRight=4;overflow=hidden;rotatable=0;points=[[0,0.5],[1,0.5]];portConstraint=eastwest;whiteSpace=wrap;html=1;" parent="kFVm6DLGCeXIeXEloJKa-54" vertex="1">
          <mxGeometry y="86" width="285.7142857142857" height="26" as="geometry" />
        </mxCell>
        <mxCell id="kFVm6DLGCeXIeXEloJKa-59" value="&lt;div&gt;-createEmployeePanel():void&lt;/div&gt;" style="text;strokeColor=none;fillColor=none;align=left;verticalAlign=top;spacingLeft=4;spacingRight=4;overflow=hidden;rotatable=0;points=[[0,0.5],[1,0.5]];portConstraint=eastwest;whiteSpace=wrap;html=1;" parent="kFVm6DLGCeXIeXEloJKa-54" vertex="1">
          <mxGeometry y="112" width="285.7142857142857" height="26" as="geometry" />
        </mxCell>
        <mxCell id="kFVm6DLGCeXIeXEloJKa-60" value="&lt;div&gt;-updateEmployeeTable():void&lt;/div&gt;" style="text;strokeColor=none;fillColor=none;align=left;verticalAlign=top;spacingLeft=4;spacingRight=4;overflow=hidden;rotatable=0;points=[[0,0.5],[1,0.5]];portConstraint=eastwest;whiteSpace=wrap;html=1;" parent="kFVm6DLGCeXIeXEloJKa-54" vertex="1">
          <mxGeometry y="138" width="285.7142857142857" height="26" as="geometry" />
        </mxCell>
        <mxCell id="kFVm6DLGCeXIeXEloJKa-61" value="&lt;font style=&quot;font-size: 14px;&quot;&gt;&lt;b&gt;GUI&lt;/b&gt;&lt;/font&gt;" style="text;html=1;align=center;verticalAlign=middle;whiteSpace=wrap;rounded=0;" parent="kFVm6DLGCeXIeXEloJKa-62" vertex="1">
          <mxGeometry x="385.7142857142857" y="10" width="285.7142857142857" height="50" as="geometry" />
        </mxCell>
        <mxCell id="kFVm6DLGCeXIeXEloJKa-63" value="" style="rounded=0;whiteSpace=wrap;html=1;" parent="WIyWlLk6GJQsqaUBKTNV-1" vertex="1">
          <mxGeometry x="-26" y="340" width="1306" height="900" as="geometry" />
        </mxCell>
        <mxCell id="kFVm6DLGCeXIeXEloJKa-64" value="&lt;font style=&quot;font-size: 14px;&quot;&gt;&lt;b&gt;MODEL&lt;/b&gt;&lt;/font&gt;" style="text;html=1;align=center;verticalAlign=middle;whiteSpace=wrap;rounded=0;" parent="WIyWlLk6GJQsqaUBKTNV-1" vertex="1">
          <mxGeometry x="367" y="330" width="150" height="70" as="geometry" />
        </mxCell>
        <mxCell id="i0VJuO2JSiCdqMd-ub6m-29" style="edgeStyle=orthogonalEdgeStyle;rounded=0;orthogonalLoop=1;jettySize=auto;html=1;exitX=0.5;exitY=0;exitDx=0;exitDy=0;" parent="WIyWlLk6GJQsqaUBKTNV-1" source="i0VJuO2JSiCdqMd-ub6m-20" target="kFVm6DLGCeXIeXEloJKa-54" edge="1">
          <mxGeometry relative="1" as="geometry" />
        </mxCell>
        <mxCell id="i0VJuO2JSiCdqMd-ub6m-20" value="(C) EmployeeData" style="swimlane;fontStyle=1;align=center;verticalAlign=top;childLayout=stackLayout;horizontal=1;startSize=26;horizontalStack=0;resizeParent=1;resizeParentMax=0;resizeLast=0;collapsible=1;marginBottom=0;whiteSpace=wrap;html=1;" parent="WIyWlLk6GJQsqaUBKTNV-1" vertex="1">
          <mxGeometry x="90" y="380" width="270" height="190" as="geometry" />
        </mxCell>
        <mxCell id="i0VJuO2JSiCdqMd-ub6m-21" value="&lt;div&gt;-employees: List&amp;lt;Employee&amp;gt;&lt;/div&gt;" style="text;strokeColor=none;fillColor=none;align=left;verticalAlign=top;spacingLeft=4;spacingRight=4;overflow=hidden;rotatable=0;points=[[0,0.5],[1,0.5]];portConstraint=eastwest;whiteSpace=wrap;html=1;" parent="i0VJuO2JSiCdqMd-ub6m-20" vertex="1">
          <mxGeometry y="26" width="270" height="26" as="geometry" />
        </mxCell>
        <mxCell id="i0VJuO2JSiCdqMd-ub6m-22" value="" style="line;strokeWidth=1;fillColor=none;align=left;verticalAlign=middle;spacingTop=-1;spacingLeft=3;spacingRight=3;rotatable=0;labelPosition=right;points=[];portConstraint=eastwest;strokeColor=inherit;" parent="i0VJuO2JSiCdqMd-ub6m-20" vertex="1">
          <mxGeometry y="52" width="270" height="8" as="geometry" />
        </mxCell>
        <mxCell id="i0VJuO2JSiCdqMd-ub6m-23" value="+addEmployee(employee: Employee): void" style="text;strokeColor=none;fillColor=none;align=left;verticalAlign=top;spacingLeft=4;spacingRight=4;overflow=hidden;rotatable=0;points=[[0,0.5],[1,0.5]];portConstraint=eastwest;whiteSpace=wrap;html=1;" parent="i0VJuO2JSiCdqMd-ub6m-20" vertex="1">
          <mxGeometry y="60" width="270" height="26" as="geometry" />
        </mxCell>
        <mxCell id="i0VJuO2JSiCdqMd-ub6m-24" value="&lt;div&gt;+removeEmployee(employee: Employee): void&lt;/div&gt;" style="text;strokeColor=none;fillColor=none;align=left;verticalAlign=top;spacingLeft=4;spacingRight=4;overflow=hidden;rotatable=0;points=[[0,0.5],[1,0.5]];portConstraint=eastwest;whiteSpace=wrap;html=1;" parent="i0VJuO2JSiCdqMd-ub6m-20" vertex="1">
          <mxGeometry y="86" width="270" height="26" as="geometry" />
        </mxCell>
        <mxCell id="i0VJuO2JSiCdqMd-ub6m-25" value="&lt;div&gt;+getEmployees(): List&amp;lt;Employee&amp;gt;&lt;/div&gt;" style="text;strokeColor=none;fillColor=none;align=left;verticalAlign=top;spacingLeft=4;spacingRight=4;overflow=hidden;rotatable=0;points=[[0,0.5],[1,0.5]];portConstraint=eastwest;whiteSpace=wrap;html=1;" parent="i0VJuO2JSiCdqMd-ub6m-20" vertex="1">
          <mxGeometry y="112" width="270" height="26" as="geometry" />
        </mxCell>
        <mxCell id="i0VJuO2JSiCdqMd-ub6m-26" value="&lt;div&gt;+findEmployeeById(id: String): Employee&lt;/div&gt;" style="text;strokeColor=none;fillColor=none;align=left;verticalAlign=top;spacingLeft=4;spacingRight=4;overflow=hidden;rotatable=0;points=[[0,0.5],[1,0.5]];portConstraint=eastwest;whiteSpace=wrap;html=1;" parent="i0VJuO2JSiCdqMd-ub6m-20" vertex="1">
          <mxGeometry y="138" width="270" height="26" as="geometry" />
        </mxCell>
        <mxCell id="i0VJuO2JSiCdqMd-ub6m-27" value="&lt;div&gt;+updateEmployee(employee: Employee): void&lt;/div&gt;" style="text;strokeColor=none;fillColor=none;align=left;verticalAlign=top;spacingLeft=4;spacingRight=4;overflow=hidden;rotatable=0;points=[[0,0.5],[1,0.5]];portConstraint=eastwest;whiteSpace=wrap;html=1;" parent="i0VJuO2JSiCdqMd-ub6m-20" vertex="1">
          <mxGeometry y="164" width="270" height="26" as="geometry" />
        </mxCell>
        <mxCell id="i0VJuO2JSiCdqMd-ub6m-40" style="edgeStyle=orthogonalEdgeStyle;rounded=0;orthogonalLoop=1;jettySize=auto;html=1;exitX=0.75;exitY=0;exitDx=0;exitDy=0;" parent="WIyWlLk6GJQsqaUBKTNV-1" source="i0VJuO2JSiCdqMd-ub6m-30" target="kFVm6DLGCeXIeXEloJKa-46" edge="1">
          <mxGeometry relative="1" as="geometry" />
        </mxCell>
        <mxCell id="i0VJuO2JSiCdqMd-ub6m-30" value="(C) ShoppingCart" style="swimlane;fontStyle=1;align=center;verticalAlign=top;childLayout=stackLayout;horizontal=1;startSize=26;horizontalStack=0;resizeParent=1;resizeParentMax=0;resizeLast=0;collapsible=1;marginBottom=0;whiteSpace=wrap;html=1;" parent="WIyWlLk6GJQsqaUBKTNV-1" vertex="1">
          <mxGeometry x="400" y="389" width="300" height="242" as="geometry" />
        </mxCell>
        <mxCell id="i0VJuO2JSiCdqMd-ub6m-31" value="-items: List&amp;lt;Product&amp;gt;" style="text;strokeColor=none;fillColor=none;align=left;verticalAlign=top;spacingLeft=4;spacingRight=4;overflow=hidden;rotatable=0;points=[[0,0.5],[1,0.5]];portConstraint=eastwest;whiteSpace=wrap;html=1;" parent="i0VJuO2JSiCdqMd-ub6m-30" vertex="1">
          <mxGeometry y="26" width="300" height="26" as="geometry" />
        </mxCell>
        <mxCell id="i0VJuO2JSiCdqMd-ub6m-33" value="-customer: Customer" style="text;strokeColor=none;fillColor=none;align=left;verticalAlign=top;spacingLeft=4;spacingRight=4;overflow=hidden;rotatable=0;points=[[0,0.5],[1,0.5]];portConstraint=eastwest;whiteSpace=wrap;html=1;" parent="i0VJuO2JSiCdqMd-ub6m-30" vertex="1">
          <mxGeometry y="52" width="300" height="26" as="geometry" />
        </mxCell>
        <mxCell id="i0VJuO2JSiCdqMd-ub6m-32" value="" style="line;strokeWidth=1;fillColor=none;align=left;verticalAlign=middle;spacingTop=-1;spacingLeft=3;spacingRight=3;rotatable=0;labelPosition=right;points=[];portConstraint=eastwest;strokeColor=inherit;" parent="i0VJuO2JSiCdqMd-ub6m-30" vertex="1">
          <mxGeometry y="78" width="300" height="8" as="geometry" />
        </mxCell>
        <mxCell id="i0VJuO2JSiCdqMd-ub6m-34" value="+addItem(product: Product): void" style="text;strokeColor=none;fillColor=none;align=left;verticalAlign=top;spacingLeft=4;spacingRight=4;overflow=hidden;rotatable=0;points=[[0,0.5],[1,0.5]];portConstraint=eastwest;whiteSpace=wrap;html=1;" parent="i0VJuO2JSiCdqMd-ub6m-30" vertex="1">
          <mxGeometry y="86" width="300" height="26" as="geometry" />
        </mxCell>
        <mxCell id="i0VJuO2JSiCdqMd-ub6m-35" value="+removeItem(product: Product): void" style="text;strokeColor=none;fillColor=none;align=left;verticalAlign=top;spacingLeft=4;spacingRight=4;overflow=hidden;rotatable=0;points=[[0,0.5],[1,0.5]];portConstraint=eastwest;whiteSpace=wrap;html=1;" parent="i0VJuO2JSiCdqMd-ub6m-30" vertex="1">
          <mxGeometry y="112" width="300" height="26" as="geometry" />
        </mxCell>
        <mxCell id="i0VJuO2JSiCdqMd-ub6m-36" value="+getItems(): List&amp;lt;Product&amp;gt;" style="text;strokeColor=none;fillColor=none;align=left;verticalAlign=top;spacingLeft=4;spacingRight=4;overflow=hidden;rotatable=0;points=[[0,0.5],[1,0.5]];portConstraint=eastwest;whiteSpace=wrap;html=1;" parent="i0VJuO2JSiCdqMd-ub6m-30" vertex="1">
          <mxGeometry y="138" width="300" height="26" as="geometry" />
        </mxCell>
        <mxCell id="i0VJuO2JSiCdqMd-ub6m-37" value="+getTotalPrice(): double" style="text;strokeColor=none;fillColor=none;align=left;verticalAlign=top;spacingLeft=4;spacingRight=4;overflow=hidden;rotatable=0;points=[[0,0.5],[1,0.5]];portConstraint=eastwest;whiteSpace=wrap;html=1;" parent="i0VJuO2JSiCdqMd-ub6m-30" vertex="1">
          <mxGeometry y="164" width="300" height="26" as="geometry" />
        </mxCell>
        <mxCell id="i0VJuO2JSiCdqMd-ub6m-38" value="+getTotalPrice(): double&lt;div&gt;&lt;/div&gt;" style="text;strokeColor=none;fillColor=none;align=left;verticalAlign=top;spacingLeft=4;spacingRight=4;overflow=hidden;rotatable=0;points=[[0,0.5],[1,0.5]];portConstraint=eastwest;whiteSpace=wrap;html=1;" parent="i0VJuO2JSiCdqMd-ub6m-30" vertex="1">
          <mxGeometry y="190" width="300" height="26" as="geometry" />
        </mxCell>
        <mxCell id="i0VJuO2JSiCdqMd-ub6m-39" value="+clear(): void&lt;div&gt;&lt;/div&gt;" style="text;strokeColor=none;fillColor=none;align=left;verticalAlign=top;spacingLeft=4;spacingRight=4;overflow=hidden;rotatable=0;points=[[0,0.5],[1,0.5]];portConstraint=eastwest;whiteSpace=wrap;html=1;" parent="i0VJuO2JSiCdqMd-ub6m-30" vertex="1">
          <mxGeometry y="216" width="300" height="26" as="geometry" />
        </mxCell>
        <mxCell id="i0VJuO2JSiCdqMd-ub6m-41" value="(C) Employee" style="swimlane;fontStyle=1;align=center;verticalAlign=top;childLayout=stackLayout;horizontal=1;startSize=26;horizontalStack=0;resizeParent=1;resizeParentMax=0;resizeLast=0;collapsible=1;marginBottom=0;whiteSpace=wrap;html=1;" parent="WIyWlLk6GJQsqaUBKTNV-1" vertex="1">
          <mxGeometry x="92" y="670" width="275" height="290" as="geometry" />
        </mxCell>
        <mxCell id="i0VJuO2JSiCdqMd-ub6m-42" value="-id: String" style="text;strokeColor=none;fillColor=none;align=left;verticalAlign=top;spacingLeft=4;spacingRight=4;overflow=hidden;rotatable=0;points=[[0,0.5],[1,0.5]];portConstraint=eastwest;whiteSpace=wrap;html=1;" parent="i0VJuO2JSiCdqMd-ub6m-41" vertex="1">
          <mxGeometry y="26" width="275" height="26" as="geometry" />
        </mxCell>
        <mxCell id="i0VJuO2JSiCdqMd-ub6m-44" value="-name: String" style="text;strokeColor=none;fillColor=none;align=left;verticalAlign=top;spacingLeft=4;spacingRight=4;overflow=hidden;rotatable=0;points=[[0,0.5],[1,0.5]];portConstraint=eastwest;whiteSpace=wrap;html=1;" parent="i0VJuO2JSiCdqMd-ub6m-41" vertex="1">
          <mxGeometry y="52" width="275" height="26" as="geometry" />
        </mxCell>
        <mxCell id="i0VJuO2JSiCdqMd-ub6m-45" value="-role: Role" style="text;strokeColor=none;fillColor=none;align=left;verticalAlign=top;spacingLeft=4;spacingRight=4;overflow=hidden;rotatable=0;points=[[0,0.5],[1,0.5]];portConstraint=eastwest;whiteSpace=wrap;html=1;" parent="i0VJuO2JSiCdqMd-ub6m-41" vertex="1">
          <mxGeometry y="78" width="275" height="26" as="geometry" />
        </mxCell>
        <mxCell id="i0VJuO2JSiCdqMd-ub6m-46" value="-salary: double" style="text;strokeColor=none;fillColor=none;align=left;verticalAlign=top;spacingLeft=4;spacingRight=4;overflow=hidden;rotatable=0;points=[[0,0.5],[1,0.5]];portConstraint=eastwest;whiteSpace=wrap;html=1;" parent="i0VJuO2JSiCdqMd-ub6m-41" vertex="1">
          <mxGeometry y="104" width="275" height="26" as="geometry" />
        </mxCell>
        <mxCell id="i0VJuO2JSiCdqMd-ub6m-48" value="-hireDate: LocalDate" style="text;strokeColor=none;fillColor=none;align=left;verticalAlign=top;spacingLeft=4;spacingRight=4;overflow=hidden;rotatable=0;points=[[0,0.5],[1,0.5]];portConstraint=eastwest;whiteSpace=wrap;html=1;" parent="i0VJuO2JSiCdqMd-ub6m-41" vertex="1">
          <mxGeometry y="130" width="275" height="26" as="geometry" />
        </mxCell>
        <mxCell id="i0VJuO2JSiCdqMd-ub6m-43" value="" style="line;strokeWidth=1;fillColor=none;align=left;verticalAlign=middle;spacingTop=-1;spacingLeft=3;spacingRight=3;rotatable=0;labelPosition=right;points=[];portConstraint=eastwest;strokeColor=inherit;" parent="i0VJuO2JSiCdqMd-ub6m-41" vertex="1">
          <mxGeometry y="156" width="275" height="8" as="geometry" />
        </mxCell>
        <mxCell id="i0VJuO2JSiCdqMd-ub6m-47" value="+ Employee(id: String, name: String, role: Role&lt;span style=&quot;background-color: initial;&quot;&gt;&amp;nbsp;)&lt;/span&gt;&lt;div&gt;+ getId(): String&lt;/div&gt;&lt;div&gt;+ getName(): String&lt;/div&gt;&lt;div&gt;+ getRole(): Role&lt;/div&gt;&lt;div&gt;+ getSalary(): double&lt;/div&gt;&lt;div&gt;+ getHireDate(): LocalDate&lt;/div&gt;&lt;div&gt;+ setSalary(salary: double): void&lt;/div&gt;&lt;div&gt;+ setRole(role: Role): void&lt;/div&gt;&lt;div&gt;&lt;div&gt;&lt;span style=&quot;background-color: initial;&quot;&gt;&lt;br&gt;&lt;/span&gt;&lt;/div&gt;&lt;/div&gt;" style="text;strokeColor=none;fillColor=none;align=left;verticalAlign=top;spacingLeft=4;spacingRight=4;overflow=hidden;rotatable=0;points=[[0,0.5],[1,0.5]];portConstraint=eastwest;whiteSpace=wrap;html=1;" parent="i0VJuO2JSiCdqMd-ub6m-41" vertex="1">
          <mxGeometry y="164" width="275" height="126" as="geometry" />
        </mxCell>
        <mxCell id="z_xMD2iePAspOxsw3Sq0-26" value="&lt;span style=&quot;font-size: 12px; font-weight: 700;&quot;&gt;(C )&lt;/span&gt;Customer" style="swimlane;childLayout=stackLayout;horizontal=1;startSize=50;horizontalStack=0;rounded=1;fontSize=14;fontStyle=0;strokeWidth=2;resizeParent=0;resizeLast=1;shadow=0;dashed=0;align=center;arcSize=4;whiteSpace=wrap;html=1;" vertex="1" parent="WIyWlLk6GJQsqaUBKTNV-1">
          <mxGeometry x="860" y="380" width="280" height="200" as="geometry" />
        </mxCell>
        <mxCell id="z_xMD2iePAspOxsw3Sq0-28" value="" style="endArrow=none;html=1;rounded=0;entryX=0.998;entryY=0.373;entryDx=0;entryDy=0;entryPerimeter=0;" edge="1" parent="z_xMD2iePAspOxsw3Sq0-26" target="z_xMD2iePAspOxsw3Sq0-27">
          <mxGeometry relative="1" as="geometry">
            <mxPoint y="106.5" as="sourcePoint" />
            <mxPoint x="160" y="106.5" as="targetPoint" />
          </mxGeometry>
        </mxCell>
        <mxCell id="z_xMD2iePAspOxsw3Sq0-27" value="-name: String&lt;div&gt;-email: String&lt;/div&gt;&lt;div&gt;-purchaseHistory: List &amp;lt;Sale&amp;gt;&lt;/div&gt;&lt;div&gt;&lt;br&gt;&lt;/div&gt;&lt;div&gt;+ Customer(name: String, email: String)&lt;/div&gt;&lt;div&gt;+ getName(): String&lt;/div&gt;&lt;div&gt;+ getEmail(): String&lt;/div&gt;&lt;div&gt;+ addPurchase(sale: Sale): void&lt;/div&gt;&lt;div&gt;+ getPurchaseHistory(): List&amp;lt;Sale&amp;gt;&lt;/div&gt;" style="align=left;strokeColor=none;fillColor=none;spacingLeft=4;fontSize=12;verticalAlign=top;resizable=0;rotatable=0;part=1;html=1;" vertex="1" parent="z_xMD2iePAspOxsw3Sq0-26">
          <mxGeometry y="50" width="280" height="150" as="geometry" />
        </mxCell>
        <mxCell id="z_xMD2iePAspOxsw3Sq0-29" value="&lt;span style=&quot;font-size: 12px; font-weight: 700;&quot;&gt;(C)&amp;nbsp;&lt;/span&gt;Sale" style="swimlane;childLayout=stackLayout;horizontal=1;startSize=50;horizontalStack=0;rounded=1;fontSize=14;fontStyle=0;strokeWidth=2;resizeParent=0;resizeLast=1;shadow=0;dashed=0;align=center;arcSize=4;whiteSpace=wrap;html=1;" vertex="1" parent="WIyWlLk6GJQsqaUBKTNV-1">
          <mxGeometry x="850" y="680" width="300" height="240" as="geometry" />
        </mxCell>
        <mxCell id="z_xMD2iePAspOxsw3Sq0-31" value="" style="endArrow=none;html=1;rounded=0;entryX=1.002;entryY=0.421;entryDx=0;entryDy=0;entryPerimeter=0;" edge="1" parent="z_xMD2iePAspOxsw3Sq0-29" target="z_xMD2iePAspOxsw3Sq0-30">
          <mxGeometry relative="1" as="geometry">
            <mxPoint y="130" as="sourcePoint" />
            <mxPoint x="160" y="130" as="targetPoint" />
          </mxGeometry>
        </mxCell>
        <mxCell id="z_xMD2iePAspOxsw3Sq0-30" value="- id: UUID&lt;div&gt;- customer: Customer&lt;/div&gt;&lt;div&gt;- products: List&amp;lt;Product&amp;gt;&lt;/div&gt;&lt;div&gt;- totalAmount: double&lt;/div&gt;&lt;div&gt;- date: LocalDateTime&lt;/div&gt;&lt;div&gt;&lt;span style=&quot;background-color: initial;&quot;&gt;&lt;br&gt;&lt;/span&gt;&lt;/div&gt;&lt;div&gt;&lt;span style=&quot;background-color: initial;&quot;&gt;+ Sale(customer: Customer, products: List&amp;lt;Product&amp;gt;&lt;/span&gt;&lt;span style=&quot;background-color: initial;&quot;&gt;)&lt;/span&gt;&lt;/div&gt;&lt;div&gt;&lt;span style=&quot;background-color: initial;&quot;&gt;+ getId(): UUID&lt;/span&gt;&lt;/div&gt;&lt;div&gt;&lt;span style=&quot;background-color: initial;&quot;&gt;+ getCustomer(): Customer&lt;/span&gt;&lt;/div&gt;&lt;div&gt;+ getProducts(): List&amp;lt;Product&amp;gt;&lt;/div&gt;&lt;div&gt;+ getTotalAmount(): double&lt;/div&gt;&lt;div&gt;+ getDate(): LocalDateTime&lt;/div&gt;" style="align=left;strokeColor=none;fillColor=none;spacingLeft=4;fontSize=12;verticalAlign=top;resizable=0;rotatable=0;part=1;html=1;" vertex="1" parent="z_xMD2iePAspOxsw3Sq0-29">
          <mxGeometry y="50" width="300" height="190" as="geometry" />
        </mxCell>
        <mxCell id="z_xMD2iePAspOxsw3Sq0-35" value="&lt;span style=&quot;font-size: 12px; font-weight: 700;&quot;&gt;(I)&amp;nbsp;&lt;/span&gt;Purchasable" style="swimlane;childLayout=stackLayout;horizontal=1;startSize=50;horizontalStack=0;rounded=1;fontSize=14;fontStyle=0;strokeWidth=2;resizeParent=0;resizeLast=1;shadow=0;dashed=0;align=center;arcSize=4;whiteSpace=wrap;html=1;" vertex="1" parent="WIyWlLk6GJQsqaUBKTNV-1">
          <mxGeometry x="90" y="1110" width="230" height="100" as="geometry" />
        </mxCell>
        <mxCell id="z_xMD2iePAspOxsw3Sq0-36" value="+ purchaseItem(): void&lt;div&gt;+ returnItem(): void&lt;/div&gt;" style="align=left;strokeColor=none;fillColor=none;spacingLeft=4;fontSize=12;verticalAlign=top;resizable=0;rotatable=0;part=1;html=1;" vertex="1" parent="z_xMD2iePAspOxsw3Sq0-35">
          <mxGeometry y="50" width="230" height="50" as="geometry" />
        </mxCell>
        <mxCell id="z_xMD2iePAspOxsw3Sq0-79" style="edgeStyle=orthogonalEdgeStyle;rounded=0;orthogonalLoop=1;jettySize=auto;html=1;exitX=0.5;exitY=0;exitDx=0;exitDy=0;entryX=0.5;entryY=1;entryDx=0;entryDy=0;" edge="1" parent="WIyWlLk6GJQsqaUBKTNV-1" source="z_xMD2iePAspOxsw3Sq0-37" target="z_xMD2iePAspOxsw3Sq0-34">
          <mxGeometry relative="1" as="geometry" />
        </mxCell>
        <mxCell id="z_xMD2iePAspOxsw3Sq0-37" value="&lt;span style=&quot;font-size: 12px; font-weight: 700;&quot;&gt;(C)&amp;nbsp;&lt;/span&gt;CD" style="swimlane;childLayout=stackLayout;horizontal=1;startSize=50;horizontalStack=0;rounded=1;fontSize=14;fontStyle=0;strokeWidth=2;resizeParent=0;resizeLast=1;shadow=0;dashed=0;align=center;arcSize=4;whiteSpace=wrap;html=1;" vertex="1" parent="WIyWlLk6GJQsqaUBKTNV-1">
          <mxGeometry x="430" y="990" width="340" height="220" as="geometry" />
        </mxCell>
        <mxCell id="z_xMD2iePAspOxsw3Sq0-40" value="" style="endArrow=none;html=1;rounded=0;entryX=0.997;entryY=0.397;entryDx=0;entryDy=0;entryPerimeter=0;" edge="1" parent="z_xMD2iePAspOxsw3Sq0-37" target="z_xMD2iePAspOxsw3Sq0-38">
          <mxGeometry relative="1" as="geometry">
            <mxPoint y="120" as="sourcePoint" />
            <mxPoint x="160" y="120" as="targetPoint" />
          </mxGeometry>
        </mxCell>
        <mxCell id="z_xMD2iePAspOxsw3Sq0-38" value="- artist: String&lt;div&gt;- genre: Genre&lt;/div&gt;&lt;div&gt;- numberOfTracks: int&amp;nbsp;&lt;/div&gt;&lt;div&gt;- duration: int&lt;/div&gt;&lt;div&gt;&lt;br&gt;&lt;/div&gt;&lt;div&gt;+ CD(name: String, price: double, artist: String, genre: Genre)&lt;/div&gt;&lt;div&gt;+ getArtist(): String&lt;/div&gt;&lt;div&gt;+ getGenre(): Genre&lt;/div&gt;&lt;div&gt;+ getNumberOfTracks(): int&lt;/div&gt;&lt;div&gt;+ getDuration(): int&lt;/div&gt;&lt;div&gt;+ getDetails(): String&lt;/div&gt;" style="align=left;strokeColor=none;fillColor=none;spacingLeft=4;fontSize=12;verticalAlign=top;resizable=0;rotatable=0;part=1;html=1;" vertex="1" parent="z_xMD2iePAspOxsw3Sq0-37">
          <mxGeometry y="50" width="340" height="170" as="geometry" />
        </mxCell>
        <mxCell id="z_xMD2iePAspOxsw3Sq0-80" style="edgeStyle=orthogonalEdgeStyle;rounded=0;orthogonalLoop=1;jettySize=auto;html=1;exitX=0.5;exitY=0;exitDx=0;exitDy=0;entryX=1;entryY=0.75;entryDx=0;entryDy=0;" edge="1" parent="WIyWlLk6GJQsqaUBKTNV-1" source="z_xMD2iePAspOxsw3Sq0-45" target="z_xMD2iePAspOxsw3Sq0-34">
          <mxGeometry relative="1" as="geometry">
            <Array as="points">
              <mxPoint x="975" y="980" />
              <mxPoint x="810" y="980" />
              <mxPoint x="810" y="895" />
            </Array>
          </mxGeometry>
        </mxCell>
        <mxCell id="z_xMD2iePAspOxsw3Sq0-45" value="&lt;span style=&quot;font-size: 12px; font-weight: 700;&quot;&gt;(C)&amp;nbsp;&lt;/span&gt;Album" style="swimlane;childLayout=stackLayout;horizontal=1;startSize=50;horizontalStack=0;rounded=1;fontSize=14;fontStyle=0;strokeWidth=2;resizeParent=0;resizeLast=1;shadow=0;dashed=0;align=center;arcSize=4;whiteSpace=wrap;html=1;" vertex="1" parent="WIyWlLk6GJQsqaUBKTNV-1">
          <mxGeometry x="800" y="1060" width="350" height="160" as="geometry" />
        </mxCell>
        <mxCell id="z_xMD2iePAspOxsw3Sq0-47" value="" style="endArrow=none;html=1;rounded=0;entryX=0.999;entryY=0.355;entryDx=0;entryDy=0;entryPerimeter=0;" edge="1" parent="z_xMD2iePAspOxsw3Sq0-45" target="z_xMD2iePAspOxsw3Sq0-46">
          <mxGeometry relative="1" as="geometry">
            <mxPoint y="89.5" as="sourcePoint" />
            <mxPoint x="160" y="89.5" as="targetPoint" />
          </mxGeometry>
        </mxCell>
        <mxCell id="z_xMD2iePAspOxsw3Sq0-46" value="- artist: String&lt;div&gt;- genre: Genre&lt;/div&gt;&lt;div&gt;&lt;br&gt;&lt;/div&gt;&lt;div&gt;+ Album(name: String, price: double, artist: String, genre: Genre)&lt;/div&gt;&lt;div&gt;+ getArtist(): String&lt;/div&gt;&lt;div&gt;+ getGenre(): Genre&lt;/div&gt;&lt;div&gt;+ getDetails(): String&lt;/div&gt;" style="align=left;strokeColor=none;fillColor=none;spacingLeft=4;fontSize=12;verticalAlign=top;resizable=0;rotatable=0;part=1;html=1;" vertex="1" parent="z_xMD2iePAspOxsw3Sq0-45">
          <mxGeometry y="50" width="350" height="110" as="geometry" />
        </mxCell>
        <mxCell id="z_xMD2iePAspOxsw3Sq0-56" value="" style="endArrow=none;html=1;rounded=0;dashed=1;dashPattern=1 2;entryX=0.509;entryY=1.064;entryDx=0;entryDy=0;entryPerimeter=0;exitX=0.5;exitY=0;exitDx=0;exitDy=0;" edge="1" parent="WIyWlLk6GJQsqaUBKTNV-1" source="i0VJuO2JSiCdqMd-ub6m-41" target="i0VJuO2JSiCdqMd-ub6m-27">
          <mxGeometry relative="1" as="geometry">
            <mxPoint x="240" y="660" as="sourcePoint" />
            <mxPoint x="580" y="650" as="targetPoint" />
          </mxGeometry>
        </mxCell>
        <mxCell id="z_xMD2iePAspOxsw3Sq0-57" value="*" style="resizable=0;html=1;whiteSpace=wrap;align=left;verticalAlign=bottom;" connectable="0" vertex="1" parent="z_xMD2iePAspOxsw3Sq0-56">
          <mxGeometry x="-1" relative="1" as="geometry" />
        </mxCell>
        <mxCell id="z_xMD2iePAspOxsw3Sq0-58" value="1" style="resizable=0;html=1;whiteSpace=wrap;align=right;verticalAlign=bottom;" connectable="0" vertex="1" parent="z_xMD2iePAspOxsw3Sq0-56">
          <mxGeometry x="1" relative="1" as="geometry">
            <mxPoint x="-7" y="19" as="offset" />
          </mxGeometry>
        </mxCell>
        <mxCell id="z_xMD2iePAspOxsw3Sq0-33" value="&lt;span style=&quot;font-size: 12px; font-weight: 700;&quot;&gt;(A)&amp;nbsp;&lt;/span&gt;Product" style="swimlane;childLayout=stackLayout;horizontal=1;startSize=50;horizontalStack=0;rounded=1;fontSize=14;fontStyle=0;strokeWidth=2;resizeParent=0;resizeLast=1;shadow=0;dashed=0;align=center;arcSize=4;whiteSpace=wrap;html=1;" vertex="1" parent="WIyWlLk6GJQsqaUBKTNV-1">
          <mxGeometry x="414" y="710" width="340" height="230" as="geometry" />
        </mxCell>
        <mxCell id="z_xMD2iePAspOxsw3Sq0-34" value="- name: String&lt;div&gt;- price: double&amp;nbsp;&lt;/div&gt;&lt;div&gt;- imageFileName: String&lt;/div&gt;&lt;div&gt;# stock: int&lt;/div&gt;&lt;div&gt;&lt;br&gt;&lt;/div&gt;&lt;div&gt;+ Product(name: String, price: double, imageFileName: String)&lt;/div&gt;&lt;div&gt;+ getName(): String&lt;/div&gt;&lt;div&gt;+ getPrice(): double&lt;/div&gt;&lt;div&gt;+ getImageFileName(): String&lt;/div&gt;&lt;div&gt;+ getStock(): int&lt;/div&gt;&lt;div&gt;+ updateStock(quantity: int): void&lt;/div&gt;&lt;div&gt;+ getDetails(): String&lt;/div&gt;&lt;div&gt;&lt;br&gt;&lt;/div&gt;" style="align=left;strokeColor=none;fillColor=none;spacingLeft=4;fontSize=12;verticalAlign=top;resizable=0;rotatable=0;part=1;html=1;" vertex="1" parent="z_xMD2iePAspOxsw3Sq0-33">
          <mxGeometry y="50" width="340" height="180" as="geometry" />
        </mxCell>
        <mxCell id="z_xMD2iePAspOxsw3Sq0-59" value="" style="endArrow=none;html=1;rounded=0;dashed=1;dashPattern=1 2;exitX=0.5;exitY=1;exitDx=0;exitDy=0;entryX=0.5;entryY=0;entryDx=0;entryDy=0;" edge="1" parent="WIyWlLk6GJQsqaUBKTNV-1" source="z_xMD2iePAspOxsw3Sq0-27" target="z_xMD2iePAspOxsw3Sq0-29">
          <mxGeometry relative="1" as="geometry">
            <mxPoint x="420" y="690" as="sourcePoint" />
            <mxPoint x="580" y="690" as="targetPoint" />
          </mxGeometry>
        </mxCell>
        <mxCell id="z_xMD2iePAspOxsw3Sq0-60" value="1" style="resizable=0;html=1;whiteSpace=wrap;align=left;verticalAlign=bottom;" connectable="0" vertex="1" parent="z_xMD2iePAspOxsw3Sq0-59">
          <mxGeometry x="-1" relative="1" as="geometry">
            <mxPoint x="-14" y="20" as="offset" />
          </mxGeometry>
        </mxCell>
        <mxCell id="z_xMD2iePAspOxsw3Sq0-61" value="*" style="resizable=0;html=1;whiteSpace=wrap;align=right;verticalAlign=bottom;" connectable="0" vertex="1" parent="z_xMD2iePAspOxsw3Sq0-59">
          <mxGeometry x="1" relative="1" as="geometry">
            <mxPoint x="20" y="-10" as="offset" />
          </mxGeometry>
        </mxCell>
        <mxCell id="z_xMD2iePAspOxsw3Sq0-64" value="" style="endArrow=none;html=1;rounded=0;dashed=1;dashPattern=1 2;entryX=-0.009;entryY=0.304;entryDx=0;entryDy=0;exitX=1.002;exitY=0.569;exitDx=0;exitDy=0;exitPerimeter=0;entryPerimeter=0;" edge="1" parent="WIyWlLk6GJQsqaUBKTNV-1" source="z_xMD2iePAspOxsw3Sq0-34" target="z_xMD2iePAspOxsw3Sq0-30">
          <mxGeometry relative="1" as="geometry">
            <mxPoint x="1001.5" y="1038" as="sourcePoint" />
            <mxPoint x="998.5" y="940" as="targetPoint" />
          </mxGeometry>
        </mxCell>
        <mxCell id="z_xMD2iePAspOxsw3Sq0-65" value="1" style="resizable=0;html=1;whiteSpace=wrap;align=left;verticalAlign=bottom;" connectable="0" vertex="1" parent="z_xMD2iePAspOxsw3Sq0-64">
          <mxGeometry x="-1" relative="1" as="geometry" />
        </mxCell>
        <mxCell id="z_xMD2iePAspOxsw3Sq0-66" value="1" style="resizable=0;html=1;whiteSpace=wrap;align=right;verticalAlign=bottom;" connectable="0" vertex="1" parent="z_xMD2iePAspOxsw3Sq0-64">
          <mxGeometry x="1" relative="1" as="geometry">
            <mxPoint x="-7" y="19" as="offset" />
          </mxGeometry>
        </mxCell>
        <mxCell id="z_xMD2iePAspOxsw3Sq0-67" value="" style="endArrow=none;html=1;rounded=0;dashed=1;dashPattern=1 2;exitX=1;exitY=0.5;exitDx=0;exitDy=0;entryX=0.005;entryY=0.344;entryDx=0;entryDy=0;entryPerimeter=0;" edge="1" parent="WIyWlLk6GJQsqaUBKTNV-1" source="i0VJuO2JSiCdqMd-ub6m-35" target="z_xMD2iePAspOxsw3Sq0-27">
          <mxGeometry relative="1" as="geometry">
            <mxPoint x="770" y="425" as="sourcePoint" />
            <mxPoint x="770" y="525" as="targetPoint" />
          </mxGeometry>
        </mxCell>
        <mxCell id="z_xMD2iePAspOxsw3Sq0-68" value="1" style="resizable=0;html=1;whiteSpace=wrap;align=left;verticalAlign=bottom;" connectable="0" vertex="1" parent="z_xMD2iePAspOxsw3Sq0-67">
          <mxGeometry x="-1" relative="1" as="geometry">
            <mxPoint x="-14" y="20" as="offset" />
          </mxGeometry>
        </mxCell>
        <mxCell id="z_xMD2iePAspOxsw3Sq0-69" value="*" style="resizable=0;html=1;whiteSpace=wrap;align=right;verticalAlign=bottom;" connectable="0" vertex="1" parent="z_xMD2iePAspOxsw3Sq0-67">
          <mxGeometry x="1" relative="1" as="geometry">
            <mxPoint x="20" y="-10" as="offset" />
          </mxGeometry>
        </mxCell>
        <mxCell id="z_xMD2iePAspOxsw3Sq0-70" value="1" style="edgeLabel;html=1;align=center;verticalAlign=middle;resizable=0;points=[];" vertex="1" connectable="0" parent="z_xMD2iePAspOxsw3Sq0-67">
          <mxGeometry x="0.7656" y="2" relative="1" as="geometry">
            <mxPoint y="-23" as="offset" />
          </mxGeometry>
        </mxCell>
        <mxCell id="z_xMD2iePAspOxsw3Sq0-71" value="" style="endArrow=none;html=1;rounded=0;exitX=1.002;exitY=1.026;exitDx=0;exitDy=0;exitPerimeter=0;entryX=1;entryY=0;entryDx=0;entryDy=0;" edge="1" parent="WIyWlLk6GJQsqaUBKTNV-1" source="i0VJuO2JSiCdqMd-ub6m-31" target="z_xMD2iePAspOxsw3Sq0-33">
          <mxGeometry relative="1" as="geometry">
            <mxPoint x="720" y="620" as="sourcePoint" />
            <mxPoint x="880" y="620" as="targetPoint" />
          </mxGeometry>
        </mxCell>
        <mxCell id="z_xMD2iePAspOxsw3Sq0-72" value="*" style="resizable=0;html=1;whiteSpace=wrap;align=left;verticalAlign=bottom;" connectable="0" vertex="1" parent="z_xMD2iePAspOxsw3Sq0-71">
          <mxGeometry x="-1" relative="1" as="geometry" />
        </mxCell>
        <mxCell id="z_xMD2iePAspOxsw3Sq0-73" value="*" style="resizable=0;html=1;whiteSpace=wrap;align=right;verticalAlign=bottom;" connectable="0" vertex="1" parent="z_xMD2iePAspOxsw3Sq0-71">
          <mxGeometry x="1" relative="1" as="geometry">
            <mxPoint x="-14" y="-10" as="offset" />
          </mxGeometry>
        </mxCell>
        <mxCell id="z_xMD2iePAspOxsw3Sq0-75" style="edgeStyle=orthogonalEdgeStyle;rounded=0;orthogonalLoop=1;jettySize=auto;html=1;exitX=1;exitY=0.25;exitDx=0;exitDy=0;entryX=1;entryY=0.5;entryDx=0;entryDy=0;" edge="1" parent="WIyWlLk6GJQsqaUBKTNV-1" source="z_xMD2iePAspOxsw3Sq0-34" target="kFVm6DLGCeXIeXEloJKa-49">
          <mxGeometry relative="1" as="geometry" />
        </mxCell>
        <mxCell id="z_xMD2iePAspOxsw3Sq0-76" style="edgeStyle=orthogonalEdgeStyle;rounded=0;orthogonalLoop=1;jettySize=auto;html=1;exitX=0;exitY=0.5;exitDx=0;exitDy=0;entryX=0;entryY=0.5;entryDx=0;entryDy=0;" edge="1" parent="WIyWlLk6GJQsqaUBKTNV-1" source="i0VJuO2JSiCdqMd-ub6m-46" target="kFVm6DLGCeXIeXEloJKa-32">
          <mxGeometry relative="1" as="geometry" />
        </mxCell>
        <mxCell id="z_xMD2iePAspOxsw3Sq0-77" style="edgeStyle=orthogonalEdgeStyle;rounded=0;orthogonalLoop=1;jettySize=auto;html=1;exitX=0;exitY=1;exitDx=0;exitDy=0;entryX=0.5;entryY=0;entryDx=0;entryDy=0;" edge="1" parent="WIyWlLk6GJQsqaUBKTNV-1" source="z_xMD2iePAspOxsw3Sq0-34" target="z_xMD2iePAspOxsw3Sq0-35">
          <mxGeometry relative="1" as="geometry">
            <Array as="points">
              <mxPoint x="414" y="990" />
              <mxPoint x="205" y="990" />
            </Array>
          </mxGeometry>
        </mxCell>
        <mxCell id="z_xMD2iePAspOxsw3Sq0-78" style="edgeStyle=orthogonalEdgeStyle;rounded=0;orthogonalLoop=1;jettySize=auto;html=1;exitX=0.5;exitY=1;exitDx=0;exitDy=0;entryX=0.5;entryY=0;entryDx=0;entryDy=0;" edge="1" parent="WIyWlLk6GJQsqaUBKTNV-1" source="z_xMD2iePAspOxsw3Sq0-38" target="kFVm6DLGCeXIeXEloJKa-33">
          <mxGeometry relative="1" as="geometry" />
        </mxCell>
        <mxCell id="z_xMD2iePAspOxsw3Sq0-81" style="edgeStyle=orthogonalEdgeStyle;rounded=0;orthogonalLoop=1;jettySize=auto;html=1;exitX=0.5;exitY=1;exitDx=0;exitDy=0;entryX=1;entryY=0.5;entryDx=0;entryDy=0;" edge="1" parent="WIyWlLk6GJQsqaUBKTNV-1" source="z_xMD2iePAspOxsw3Sq0-46" target="kFVm6DLGCeXIeXEloJKa-36">
          <mxGeometry relative="1" as="geometry" />
        </mxCell>
      </root>
    </mxGraphModel>
  </diagram>
</mxfile>
